# 3ds Max Wavefront OBJ Exporter v0.97b - (c)2007 guruware
# File Created: 26.01.2014 11:28:06

mtllib President_HQ.mtl

#
# object Tile
#

v  -64.0000 0.0000 -64.0000
v  -64.0000 0.0000 64.0000
v  64.0000 0.0000 64.0000
v  64.0000 0.0000 -64.0000
# 4 vertices

vn 0.0000 1.0000 -0.0000
# 1 vertex normals

vt 0.0000 1.0000 0.0000
vt 0.0000 0.0000 0.0000
vt 1.0000 0.0000 0.0000
vt 1.0000 1.0000 0.0000
# 4 texture coords

g Tile
usemtl Material__28
s 1
f 1/1/1 2/2/1 3/3/1 4/4/1 
# 1 polygons

#
# object Tile004
#

v  -192.0000 0.0000 -64.0000
v  -64.0000 0.0000 -64.0000
v  -64.0000 0.0000 -192.0000
v  -192.0000 0.0000 -192.0000
v  64.0000 0.0000 -64.0000
v  64.0000 0.0000 -192.0000
v  192.0000 0.0000 -64.0000
v  192.0000 0.0000 -192.0000
v  64.0000 0.0000 192.0000
v  192.0000 0.0000 192.0000
v  192.0000 0.0000 64.0000
v  64.0000 0.0000 64.0000
v  -64.0000 0.0000 192.0000
v  -64.0000 0.0000 64.0000
v  -192.0000 0.0000 192.0000
v  -192.0000 0.0000 64.0000
# 16 vertices

vn 0.0000 1.0000 -0.0000
# 1 vertex normals

vt 0.0000 0.0000 0.0000
vt 1.0000 0.0000 0.0000
vt 1.0000 1.0000 0.0000
vt 0.0000 1.0000 0.0000
# 4 texture coords

g Tile004
usemtl Material__29
s 1
f 5/5/2 6/6/2 7/7/2 8/8/2 
usemtl Material__28
f 6/5/2 9/6/2 10/7/2 7/8/2 
usemtl Material__29
f 9/5/2 11/6/2 12/7/2 10/8/2 
f 13/5/2 14/6/2 15/7/2 16/8/2 
usemtl Material__28
f 16/5/2 15/6/2 11/7/2 9/8/2 
f 17/5/2 13/6/2 16/7/2 18/8/2 
usemtl Material__29
f 19/5/2 17/6/2 18/7/2 20/8/2 
usemtl Material__28
f 20/5/2 18/6/2 6/7/2 5/8/2 
# 8 polygons

#
# object Box001
#

v  -57.7268 -0.2052 9.3065
v  -57.7269 -0.2052 100.6833
v  -82.2430 -0.2052 100.6833
v  -82.2430 -0.2052 9.3064
v  -32.8249 256.7213 78.5230
v  -23.0185 256.7213 78.5230
v  -23.0185 256.7213 41.9723
v  -32.8249 256.7213 41.9723
v  -163.2666 -0.2052 100.6833
v  -163.2666 21.1006 100.6833
v  -163.2666 21.1006 9.3064
v  -163.2666 -0.2052 9.3064
v  -57.7269 -0.2052 118.1924
v  -57.7269 21.1006 118.1924
v  -82.2430 21.1006 118.1924
v  -82.2430 -0.2052 118.1924
v  82.4838 -0.2052 100.6833
v  82.4838 21.1006 100.6833
v  82.4838 21.1006 118.1925
v  82.4838 -0.2052 118.1925
v  57.0714 -0.2052 -154.0225
v  57.0714 21.1006 -154.0225
v  82.4839 21.1006 -154.0225
v  82.4839 -0.2052 -154.0225
v  -82.2430 190.3453 100.6833
v  -65.7703 190.3453 93.2966
v  -65.7703 190.3453 20.1951
v  -82.2430 190.3453 9.3064
v  -57.7269 190.3453 118.1924
v  -46.1574 190.3453 107.3038
v  -65.7703 190.3453 107.3038
v  -82.2430 190.3453 118.1924
v  82.4838 190.3453 100.6833
v  66.0111 190.3453 93.2966
v  66.0111 190.3453 107.3039
v  82.4838 190.3453 118.1925
v  57.0714 190.3453 9.3065
v  45.6812 190.3453 20.1951
v  66.0112 190.3453 20.1951
v  82.4838 190.3453 9.3065
v  -65.7703 217.5668 93.2966
v  -65.7703 217.5668 20.1951
v  -46.1574 217.5668 107.3038
v  -65.7703 217.5668 107.3038
v  66.0111 217.5668 93.2966
v  66.0111 217.5668 107.3039
v  45.6812 217.5668 20.1951
v  66.0112 217.5668 20.1951
v  -49.2976 217.5668 85.9098
v  -49.2976 217.5668 31.0837
v  -34.5880 217.5668 96.4153
v  -49.2976 217.5668 96.4153
v  49.5385 217.5668 85.9098
v  49.5385 217.5668 96.4153
v  34.2910 217.5668 31.0837
v  49.5385 217.5668 31.0837
v  -49.2976 244.7883 85.9098
v  -49.2976 244.7883 31.0837
v  -34.5880 244.7883 96.4153
v  -49.2976 244.7883 96.4153
v  49.5385 244.7883 85.9098
v  49.5385 244.7883 96.4153
v  34.2910 244.7883 31.0837
v  49.5385 244.7883 31.0837
v  -32.8249 244.7883 78.5230
v  -32.8249 244.7883 41.9723
v  -23.0185 244.7883 85.5267
v  -32.8249 244.7883 85.5267
v  33.0658 244.7883 78.5230
v  33.0658 244.7883 85.5267
v  22.9008 244.7883 41.9723
v  33.0658 244.7883 41.9723
v  -23.0185 256.7213 85.5267
v  -32.8249 256.7213 85.5267
v  33.0658 256.7213 78.5230
v  33.0658 256.7213 85.5267
v  22.9008 256.7213 41.9723
v  33.0658 256.7213 41.9723
v  -82.2430 122.2051 100.6833
v  -82.2430 122.2051 118.1924
v  57.0714 190.3453 118.1925
v  57.0714 122.2051 118.1925
v  82.4838 122.2051 118.1925
v  -82.2430 190.3453 -154.0226
v  -57.7268 190.3453 -154.0226
v  -57.7268 122.2051 -154.0226
v  -82.2430 122.2051 -154.0226
v  57.0714 -0.2052 118.1925
v  57.0714 -0.2052 100.6833
v  -82.2430 21.1006 100.6833
v  163.3914 -0.2052 9.3065
v  163.3914 21.1006 9.3065
v  163.3914 21.1006 100.6834
v  163.3914 -0.2052 100.6834
v  82.4838 122.2051 100.6833
v  -82.2430 39.9958 -154.0226
v  -163.2666 39.9958 -154.0226
v  -163.2666 122.2051 -154.0226
v  82.4838 -0.2052 9.3065
v  163.3914 21.1006 -154.0225
v  163.3914 -0.2052 -154.0225
v  82.4838 39.9958 100.6833
v  163.3914 39.9958 100.6834
v  163.3914 122.2051 100.6834
v  57.0714 -0.2052 9.3065
v  22.9008 256.7213 78.5230
v  57.0714 -0.2052 172.6355
v  57.0714 21.1006 172.6355
v  -57.7269 21.1006 172.6355
v  -57.7269 -0.2052 172.6355
v  -82.2430 -0.2052 -154.0226
v  -82.2430 21.1006 -154.0226
v  -57.7268 21.1006 -154.0226
v  -57.7268 -0.2052 -154.0226
v  45.6812 190.3453 107.3039
v  -57.7268 190.3453 9.3065
v  -46.1574 190.3453 20.1951
v  45.6812 217.5668 107.3039
v  -46.1574 217.5668 20.1951
v  34.2910 217.5668 96.4153
v  -34.5879 217.5668 31.0837
v  34.2910 244.7883 96.4153
v  -34.5879 244.7883 31.0837
v  22.9008 244.7883 85.5267
v  -23.0185 244.7883 41.9723
v  22.9008 256.7213 85.5267
v  -57.7269 122.2051 118.1924
v  57.0714 190.3453 -154.0225
v  57.0714 122.2051 -154.0225
v  57.0714 21.1006 118.1925
v  82.4839 190.3453 -154.0225
v  82.4839 122.2051 -154.0225
v  -163.2666 122.2051 100.6833
v  -163.2666 122.2051 9.3064
v  -163.2666 39.9958 9.3064
v  -163.2666 39.9958 100.6833
v  -82.2430 39.9958 118.1924
v  -57.7269 39.9958 118.1924
v  82.4838 39.9958 118.1925
v  82.4839 39.9958 -154.0225
v  57.0714 39.9958 -154.0225
v  -82.2430 39.9958 100.6833
v  163.3914 122.2051 9.3065
v  163.3914 39.9958 9.3065
v  -163.2666 21.1006 -154.0226
v  163.3914 122.2051 -154.0225
v  163.3914 39.9958 -154.0225
v  57.0714 39.9958 118.1925
v  -57.7268 39.9958 -154.0226
v  57.0714 39.9958 145.4140
v  -57.7269 39.9958 145.4139
v  -57.7269 21.1006 145.4139
v  57.0714 21.1006 145.4140
v  -163.2666 -0.2052 -154.0226
v  -57.7269 -0.2052 145.4139
v  57.0714 -0.2052 145.4140
# 156 vertices

vn 0.0000 -1.0000 -0.0000
vn 0.0000 1.0000 -0.0000
vn -1.0000 0.0000 -0.0000
vn 0.0000 0.0000 1.0000
vn 1.0000 0.0000 -0.0000
vn 0.0000 0.0000 -1.0000
vn -0.0000 0.0000 1.0000
vn 1.0000 0.0000 0.0000
vn -0.0000 1.0000 0.0000
vn -1.0000 0.0000 0.0000
vn 0.0000 -0.0000 1.0000
vn -0.0000 -0.0000 1.0000
vn -0.0000 1.0000 -0.0000
vn 0.6442 0.7649 0.0000
vn -0.6436 0.7653 -0.0000
# 15 vertex normals

vt 0.1787 0.3663 0.0000
vt 0.1787 0.4228 0.0000
vt 0.1938 0.4228 0.0000
vt 0.1938 0.3663 0.0000
vt 0.2944 0.2103 0.0000
vt 0.2946 0.2423 0.0000
vt 0.4138 0.2416 0.0000
vt 0.4140 0.2095 0.0000
vt 0.5860 0.6272 0.0000
vt 0.5860 0.6612 0.0000
vt 0.7315 0.6612 0.0000
vt 0.7315 0.6272 0.0000
vt 0.3182 0.5773 0.0000
vt 0.3182 0.6227 0.0000
vt 0.3704 0.6227 0.0000
vt 0.3704 0.5773 0.0000
vt 0.4573 0.6274 0.0000
vt 0.4573 0.6610 0.0000
vt 0.4296 0.6614 0.0000
vt 0.4296 0.6279 0.0000
vt 0.7910 0.3102 0.0000
vt 0.7910 0.3429 0.0000
vt 0.8300 0.3429 0.0000
vt 0.8300 0.3102 0.0000
vt 0.2331 0.0136 0.0000
vt 0.2182 0.0467 0.0000
vt 0.0712 0.0465 0.0000
vt 0.0494 0.0133 0.0000
vt 0.4041 0.0147 0.0000
vt 0.4301 0.0392 0.0000
vt 0.3859 0.0392 0.0000
vt 0.3488 0.0147 0.0000
vt 0.2330 0.0142 0.0000
vt 0.2182 0.0473 0.0000
vt 0.2463 0.0473 0.0000
vt 0.2682 0.0142 0.0000
vt 0.4052 0.0150 0.0000
vt 0.4308 0.0395 0.0000
vt 0.3851 0.0395 0.0000
vt 0.3480 0.0150 0.0000
vt 0.2181 0.1014 0.0000
vt 0.0711 0.1012 0.0000
vt 0.4301 0.1005 0.0000
vt 0.3859 0.1005 0.0000
vt 0.2182 0.1021 0.0000
vt 0.2464 0.1020 0.0000
vt 0.4308 0.1008 0.0000
vt 0.3851 0.1008 0.0000
vt 0.2032 0.1345 0.0000
vt 0.0930 0.1343 0.0000
vt 0.4562 0.1251 0.0000
vt 0.4230 0.1251 0.0000
vt 0.2034 0.1352 0.0000
vt 0.2246 0.1352 0.0000
vt 0.4565 0.1254 0.0000
vt 0.4222 0.1254 0.0000
vt 0.2031 0.1892 0.0000
vt 0.0929 0.1891 0.0000
vt 0.4562 0.1864 0.0000
vt 0.4230 0.1864 0.0000
vt 0.2035 0.1899 0.0000
vt 0.2246 0.1899 0.0000
vt 0.4565 0.1867 0.0000
vt 0.4222 0.1867 0.0000
vt 0.1882 0.2223 0.0000
vt 0.1147 0.2222 0.0000
vt 0.4822 0.2109 0.0000
vt 0.4601 0.2109 0.0000
vt 0.1887 0.2230 0.0000
vt 0.2028 0.2230 0.0000
vt 0.4821 0.2112 0.0000
vt 0.4593 0.2112 0.0000
vt 0.1881 0.2463 0.0000
vt 0.1147 0.2462 0.0000
vt 0.4822 0.2378 0.0000
vt 0.4601 0.2378 0.0000
vt 0.1888 0.2470 0.0000
vt 0.2028 0.2470 0.0000
vt 0.4821 0.2381 0.0000
vt 0.4593 0.2381 0.0000
vt 0.4291 0.9305 0.0000
vt 0.4569 0.9306 0.0000
vt 0.4569 0.8221 0.0000
vt 0.4291 0.8211 0.0000
vt 0.0195 0.9841 0.0000
vt 0.0737 0.9832 0.0000
vt 0.0737 0.8380 0.0000
vt 0.0195 0.8384 0.0000
vt 0.5776 0.6021 0.0000
vt 0.6152 0.6021 0.0000
vt 0.6152 0.4977 0.0000
vt 0.5776 0.4977 0.0000
vt 0.0921 0.4336 0.0000
vt 0.1078 0.4336 0.0000
vt 0.1078 0.4228 0.0000
vt 0.0921 0.4228 0.0000
vt 0.2716 0.2104 0.0000
vt 0.2717 0.2424 0.0000
vt 0.4291 0.6273 0.0000
vt 0.4291 0.6612 0.0000
vt 0.4569 0.6612 0.0000
vt 0.4569 0.6273 0.0000
vt 0.7298 0.6272 0.0000
vt 0.7298 0.6609 0.0000
vt 0.5852 0.6609 0.0000
vt 0.5852 0.6272 0.0000
vt 0.2683 0.0137 0.0000
vt 0.2463 0.0468 0.0000
vt 0.0493 0.0145 0.0000
vt 0.0712 0.0475 0.0000
vt 0.2462 0.1015 0.0000
vt 0.0713 0.1023 0.0000
vt 0.2243 0.1346 0.0000
vt 0.0932 0.1353 0.0000
vt 0.2242 0.1893 0.0000
vt 0.0933 0.1901 0.0000
vt 0.2023 0.2223 0.0000
vt 0.1153 0.2231 0.0000
vt 0.2022 0.2463 0.0000
vt 0.1153 0.2471 0.0000
vt 0.4296 0.9275 0.0000
vt 0.4296 0.8204 0.0000
vt 0.4573 0.8207 0.0000
vt 0.4573 0.9284 0.0000
vt 0.5776 0.3718 0.0000
vt 0.4535 0.3718 0.0000
vt 0.4535 0.4977 0.0000
vt 0.2438 0.4228 0.0000
vt 0.2438 0.3663 0.0000
vt 0.0921 0.3663 0.0000
vt 0.0421 0.3663 0.0000
vt 0.0421 0.4228 0.0000
vt 0.9539 0.3429 0.0000
vt 0.9539 0.3102 0.0000
vt 0.4573 0.6909 0.0000
vt 0.5852 0.6908 0.0000
vt 0.5852 0.8208 0.0000
vt 0.1078 0.3663 0.0000
vt 0.2954 0.3921 0.0000
vt 0.4146 0.3914 0.0000
vt 0.2979 0.6461 0.0000
vt 0.2980 0.6093 0.0000
vt 0.0994 0.6093 0.0000
vt 0.0995 0.6461 0.0000
vt 0.5776 0.3102 0.0000
vt 0.5776 0.3429 0.0000
vt 0.6152 0.3429 0.0000
vt 0.6152 0.3102 0.0000
vt 0.6626 0.0147 0.0000
vt 0.6370 0.0392 0.0000
vt 0.6637 0.0150 0.0000
vt 0.7190 0.0150 0.0000
vt 0.6819 0.0395 0.0000
vt 0.6377 0.0395 0.0000
vt 0.6370 0.1006 0.0000
vt 0.6819 0.1008 0.0000
vt 0.6377 0.1008 0.0000
vt 0.6113 0.1251 0.0000
vt 0.6448 0.1254 0.0000
vt 0.6116 0.1254 0.0000
vt 0.6113 0.1864 0.0000
vt 0.6448 0.1867 0.0000
vt 0.6116 0.1867 0.0000
vt 0.5857 0.2109 0.0000
vt 0.6077 0.2112 0.0000
vt 0.5856 0.2112 0.0000
vt 0.5857 0.2378 0.0000
vt 0.6077 0.2381 0.0000
vt 0.5856 0.2381 0.0000
vt 0.3704 0.9832 0.0000
vt 0.3704 0.8380 0.0000
vt 0.3182 0.8380 0.0000
vt 0.3182 0.9832 0.0000
vt 0.7910 0.6021 0.0000
vt 0.7910 0.4977 0.0000
vt 0.1938 0.4336 0.0000
vt 0.1787 0.4336 0.0000
vt 0.2726 0.3922 0.0000
vt 0.2956 0.4252 0.0000
vt 0.4148 0.4252 0.0000
vt 0.0195 0.5767 0.0000
vt 0.0195 0.6223 0.0000
vt 0.0737 0.6227 0.0000
vt 0.0737 0.5773 0.0000
vt 0.7199 0.0147 0.0000
vt 0.6828 0.0392 0.0000
vt 0.6828 0.1006 0.0000
vt 0.6456 0.1251 0.0000
vt 0.6456 0.1864 0.0000
vt 0.6085 0.2109 0.0000
vt 0.6085 0.2378 0.0000
vt 0.8300 0.6021 0.0000
vt 0.8300 0.4977 0.0000
vt 0.2727 0.4254 0.0000
vt 0.5860 0.8222 0.0000
vt 0.7315 0.8222 0.0000
vt 0.7315 0.6913 0.0000
vt 0.5860 0.6913 0.0000
vt 0.3704 0.6629 0.0000
vt 0.3182 0.6629 0.0000
vt 0.4296 0.6911 0.0000
vt 0.8300 0.3718 0.0000
vt 0.7910 0.3718 0.0000
vt 0.4569 0.6913 0.0000
vt 0.4291 0.6902 0.0000
vt 0.7298 0.8208 0.0000
vt 0.7298 0.6908 0.0000
vt 0.4535 0.3429 0.0000
vt 0.9539 0.4977 0.0000
vt 0.9539 0.3718 0.0000
vt 0.0737 0.6629 0.0000
vt 0.6152 0.3718 0.0000
vt 0.0195 0.6627 0.0000
vt 0.2982 0.5356 0.0000
vt 0.0992 0.5356 0.0000
vt 0.0993 0.5621 0.0000
vt 0.2981 0.5621 0.0000
vt 0.4535 0.3102 0.0000
vt 0.3559 0.4568 0.0000
vt 0.3148 0.4568 0.0000
vt 0.3148 0.5094 0.0000
vt 0.3559 0.5094 0.0000
vt 0.1078 0.4504 0.0000
vt 0.1787 0.4504 0.0000
vt 0.3147 0.4564 0.0000
vt 0.3558 0.4564 0.0000
vt 0.3558 0.5089 0.0000
vt 0.3147 0.5089 0.0000
vt 0.3923 0.4564 0.0000
vt 0.3923 0.5089 0.0000
vt 0.2981 0.4884 0.0000
vt 0.0993 0.4884 0.0000
vt 0.3924 0.4568 0.0000
vt 0.3924 0.5094 0.0000
vt 0.3148 0.5620 0.0000
vt 0.3559 0.5620 0.0000
vt 0.1078 0.4672 0.0000
vt 0.1787 0.4672 0.0000
vt 0.3558 0.5615 0.0000
vt 0.3147 0.5615 0.0000
vt 0.1938 0.2654 0.0000
vt 0.1787 0.2654 0.0000
vt 0.2438 0.2654 0.0000
vt 0.9916 0.6612 0.0000
vt 0.9916 0.6272 0.0000
vt 0.9916 0.6913 0.0000
vt 0.9916 0.8222 0.0000
vt 0.7152 0.2763 0.0000
vt 0.7554 0.2763 0.0000
vt 0.7554 0.0085 0.0000
vt 0.7152 0.0085 0.0000
vt 0.9437 0.2763 0.0000
vt 0.9437 0.0085 0.0000
vt 0.9854 0.2763 0.0000
vt 0.9854 0.0085 0.0000
vt 0.9881 0.6908 0.0000
vt 0.9881 0.8208 0.0000
vt 0.9881 0.6609 0.0000
vt 0.9881 0.6272 0.0000
vt 0.0921 0.2654 0.0000
vt 0.0421 0.2654 0.0000
vt 0.1078 0.2654 0.0000
vt 0.7298 0.9881 0.0000
vt 0.5852 0.9881 0.0000
vt 0.9881 0.9881 0.0000
vt 0.5860 0.9843 0.0000
vt 0.7315 0.9843 0.0000
vt 0.9916 0.9843 0.0000
# 268 texture coords

g Box001
usemtl Material__25
s 2
f 21/9/3 22/10/3 23/11/3 24/12/3 
s 4
f 25/13/4 26/14/4 27/15/4 28/16/4 
s 8
f 29/17/5 30/18/5 31/19/5 32/20/5 
s 16
f 33/21/6 34/22/6 35/23/6 36/24/6 
s 32
f 37/25/7 38/26/7 39/27/7 40/28/7 
s 64
f 41/29/8 42/30/8 43/31/8 44/32/8 
s off
f 45/33/4 46/34/4 47/35/4 48/36/4 
f 49/37/4 50/38/4 51/39/4 52/40/4 
f 53/41/4 54/42/4 55/43/4 56/44/4 
f 57/45/4 58/46/4 59/47/4 60/48/4 
f 46/34/5 61/49/5 62/50/5 47/35/5 
f 50/38/9 63/51/9 64/52/9 51/39/9 
f 54/42/10 65/53/10 66/54/10 55/43/10 
f 58/46/8 67/55/8 68/56/8 59/47/8 
f 61/49/4 69/57/4 70/58/4 62/50/4 
f 63/51/4 71/59/4 72/60/4 64/52/4 
f 65/53/4 73/61/4 74/62/4 66/54/4 
f 67/55/4 75/63/4 76/64/4 68/56/4 
f 69/57/5 77/65/5 78/66/5 70/58/5 
f 71/59/9 79/67/9 80/68/9 72/60/9 
f 73/61/10 81/69/10 82/70/10 74/62/10 
f 75/63/8 83/71/8 84/72/8 76/64/8 
f 77/65/4 85/73/4 86/74/4 78/66/4 
f 79/67/4 87/75/4 88/76/4 80/68/4 
f 81/69/11 89/77/11 90/78/11 82/70/11 
f 83/71/4 91/79/4 92/80/4 84/72/4 
f 85/73/5 25/81/5 28/82/5 86/74/5 
f 87/75/9 93/83/9 94/84/9 88/76/9 
f 89/77/10 95/85/10 96/86/10 90/78/10 
f 91/79/8 97/87/8 98/88/8 92/80/8 
s 8
f 52/89/12 45/90/12 99/91/12 100/92/12 
s 16
f 56/93/13 101/94/14 102/95/14 103/96/6 
s 64
f 104/97/8 105/98/8 106/99/8 107/100/8 
s 2
f 40/101/3 108/102/3 109/103/3 37/104/3 
s 4
f 94/105/4 93/106/4 26/14/4 25/13/4 
s 8
f 36/107/12 35/108/12 110/109/12 23/110/12 
s 32
f 111/111/10 112/112/10 113/113/10 114/114/10 
s off
f 45/33/4 52/115/4 51/116/4 46/34/4 
f 53/41/4 60/117/4 59/118/4 54/42/4 
f 51/116/5 64/119/5 61/49/5 46/34/5 
f 59/118/10 68/120/10 65/53/10 54/42/10 
f 61/49/4 64/119/4 72/121/4 69/57/4 
f 65/53/4 68/120/4 76/122/4 73/61/4 
f 72/121/5 80/123/5 77/65/5 69/57/5 
f 76/122/10 84/124/10 81/69/10 73/61/10 
f 77/65/4 80/123/4 88/125/4 85/73/4 
f 81/69/15 84/124/15 92/126/15 89/77/15 
f 88/125/5 94/127/5 25/81/5 85/73/5 
f 92/126/10 98/128/10 95/85/10 89/77/10 
s 32
f 56/129/7 103/130/7 115/131/7 53/132/7 
s off
f 116/133/8 117/134/8 118/135/8 107/100/8 
f 24/12/3 23/11/3 29/136/3 32/137/3 
f 110/109/9 30/18/9 29/17/9 23/110/9 
f 37/104/3 119/138/3 111/139/3 114/140/3 
f 43/31/8 120/141/8 121/142/8 44/32/8 
f 122/143/9 123/144/9 124/145/9 115/131/9 
s 2
f 125/146/3 109/103/3 22/10/3 21/9/3 
s 4
f 126/147/4 97/148/4 27/15/4 26/14/4 
s 16
f 127/149/9 128/150/9 129/151/9 130/152/9 
s 64
f 131/153/8 132/154/8 133/155/8 134/156/8 
s off
f 101/157/4 135/158/4 50/38/4 49/37/4 
f 136/159/4 48/160/4 47/161/4 137/162/4 
f 135/158/9 138/163/9 63/51/9 50/38/9 
f 47/161/8 62/164/8 139/165/8 137/162/8 
f 138/163/4 140/166/4 71/59/4 63/51/4 
f 139/165/4 62/164/4 70/167/4 141/168/4 
f 140/166/9 142/169/9 79/67/9 71/59/9 
f 70/167/8 78/170/8 143/171/8 141/168/8 
f 142/169/4 144/172/4 87/75/4 79/67/4 
f 143/171/4 78/170/4 86/173/4 145/174/4 
f 144/172/9 146/175/9 93/83/9 87/75/9 
f 86/173/8 28/176/8 27/177/8 145/174/8 
s 16
f 52/178/6 100/179/6 147/180/9 49/181/9 
s 64
f 148/182/8 149/183/8 106/99/8 105/98/8 
s 2
f 36/184/3 23/11/3 22/10/3 33/185/3 
s 4
f 146/186/4 126/147/4 26/14/4 93/106/4 
s 64
f 134/156/8 133/155/8 42/30/8 41/29/8 
s off
f 136/159/4 137/162/4 58/46/4 57/45/4 
f 137/162/8 139/165/8 67/55/8 58/46/8 
f 139/165/4 141/168/4 75/63/4 67/55/4 
f 141/168/8 143/171/8 83/71/8 75/63/8 
f 143/171/4 145/174/4 91/79/4 83/71/4 
f 145/174/8 27/177/8 97/87/8 91/79/8 
s 16
f 49/181/9 147/180/9 102/95/14 101/94/14 
s 2
f 33/185/3 22/10/3 109/103/3 108/102/3 
f 119/138/3 37/104/3 109/103/3 125/146/3 
s 4
f 95/187/4 98/188/4 97/148/4 126/147/4 
s 16
f 40/189/6 39/190/6 150/191/6 108/192/6 
s off
f 101/157/4 56/193/4 55/194/4 135/158/4 
f 55/194/9 66/195/9 138/163/9 135/158/9 
f 138/163/4 66/195/4 74/196/4 140/166/4 
f 74/196/9 82/197/9 142/169/9 140/166/9 
f 142/169/4 82/197/4 90/198/4 144/172/4 
f 90/198/9 96/199/9 146/175/9 144/172/9 
s 64
f 151/200/8 152/201/8 149/183/8 148/182/8 
s 4
f 96/202/4 95/187/4 126/147/4 146/186/4 
s 8
f 153/203/5 154/204/5 155/205/5 156/206/5 
s 16
f 147/180/9 100/179/6 157/207/6 158/208/6 
s 32
f 115/131/7 103/130/7 159/209/7 122/143/7 
s 64
f 149/183/8 152/201/8 160/210/8 161/211/8 
s 8
f 100/92/12 99/91/12 162/212/12 157/213/12 
s 32
f 163/214/10 124/145/10 123/144/10 164/215/10 
s off
f 132/154/8 165/216/8 117/134/8 116/133/8 
f 99/91/9 153/203/9 156/206/9 162/212/9 
f 152/201/8 166/217/8 167/218/8 160/210/8 
f 38/26/9 113/113/9 123/144/9 122/143/9 
s 16
f 102/95/14 147/180/9 158/208/6 168/219/6 
s 64
f 107/100/8 106/99/8 169/220/8 116/133/8 
f 106/99/8 149/183/8 161/211/8 169/220/8 
s 16
f 103/96/6 102/95/14 168/219/6 159/221/6 
s 8
f 156/206/5 155/205/5 31/19/5 30/18/5 
s 16
f 158/208/6 157/207/6 35/23/6 34/22/6 
s 32
f 122/143/7 159/209/7 39/27/7 38/26/7 
s 64
f 161/211/8 160/210/8 43/31/8 42/30/8 
s 8
f 157/213/12 162/212/12 110/109/12 35/108/12 
s 32
f 164/215/10 123/144/10 113/113/10 112/112/10 
s off
f 162/212/9 156/206/9 30/18/9 110/109/9 
f 160/210/8 167/218/8 120/141/8 43/31/8 
s 16
f 170/222/9 171/223/9 172/224/9 173/225/9 
s 64
f 116/133/8 169/220/8 133/155/8 132/154/8 
f 169/220/8 161/211/8 42/30/8 133/155/8 
s 16
f 159/221/6 168/219/6 150/191/6 39/190/6 
s off
f 131/153/8 174/226/8 165/216/8 132/154/8 
f 37/25/9 114/114/9 113/113/9 38/26/9 
f 34/227/12 33/228/12 175/229/12 172/230/12 
f 33/185/3 108/102/3 176/231/3 175/232/3 
f 108/233/7 150/234/7 173/235/7 176/236/7 
f 150/234/7 168/237/7 170/238/7 173/235/7 
f 168/239/4 158/240/4 171/223/4 170/222/4 
f 158/241/12 34/227/12 172/230/12 171/242/12 
f 173/225/4 172/224/4 129/151/4 128/150/4 
f 172/230/5 175/229/5 130/243/5 129/244/5 
f 175/232/3 176/231/3 127/245/3 130/246/3 
f 176/236/10 173/235/10 128/247/10 127/248/10 
f 21/9/3 24/12/3 131/249/3 134/250/3 
f 24/12/3 32/137/3 174/251/3 131/249/3 
f 32/20/5 31/19/5 165/252/5 174/253/5 
f 31/19/5 155/205/5 117/254/5 165/252/5 
f 155/205/5 154/204/5 118/255/5 117/254/5 
f 48/256/4 136/257/4 105/258/4 104/259/4 
f 136/257/4 57/260/4 148/261/4 105/258/4 
f 57/260/4 60/262/4 151/263/4 148/261/4 
f 163/214/10 164/215/10 167/264/10 166/265/10 
f 164/215/10 112/112/10 120/266/10 167/264/10 
f 112/112/10 111/111/10 121/267/10 120/266/10 
f 111/139/3 119/138/3 44/268/3 121/269/3 
f 119/138/3 125/146/3 41/270/3 44/268/3 
f 125/146/3 21/9/3 134/250/3 41/270/3 
f 124/145/16 163/214/16 60/271/16 53/272/16 
f 163/214/16 166/265/16 151/273/16 60/271/16 
f 154/204/17 153/203/17 45/274/17 48/275/17 
f 118/255/17 154/204/17 48/275/17 104/276/17 
f 107/100/8 118/135/8 104/97/8 
f 166/217/8 152/201/8 151/200/8 
f 153/203/9 99/91/9 45/90/9 
f 115/131/9 124/145/9 53/132/9 
# 152 polygons - 4 triangles

