# 3ds Max Wavefront OBJ Exporter v0.97b - (c)2007 guruware
# File Created: 26.01.2014 11:37:00

mtllib ShoppingMall.mtl

#
# object Tile004
#

#
# object Box003
#

#
# object Box005
#

v  125.6952 0.1970 -144.7833
v  125.6952 0.1970 -86.8699
v  81.8215 0.1970 -86.8699
v  81.8215 0.1970 -144.7832
v  37.9478 0.1970 -86.8699
v  37.9478 0.1970 -144.7832
v  -0.0000 0.1970 -86.8699
v  -0.0000 0.1970 -144.7832
v  125.6952 0.1970 -28.9567
v  81.8215 0.1970 -28.9567
v  37.9478 0.1970 -28.9566
v  0.0000 0.1970 -28.9566
v  125.6952 0.1970 28.9566
v  81.8215 0.1970 28.9566
v  37.9478 0.1970 28.9566
v  0.0000 0.1970 28.9566
v  125.6952 0.1970 86.8699
v  81.8215 0.1970 86.8699
v  37.9478 0.1970 86.8699
v  0.0000 0.1970 86.8699
v  125.6952 0.1970 144.7832
v  81.8215 0.1970 144.7832
v  37.9478 0.1970 144.7832
v  0.0000 0.1970 144.7832
v  81.8215 27.3362 -144.7832
v  125.6952 27.3362 -144.7833
v  37.9478 0.1970 -187.5408
v  37.9478 27.3362 -187.5408
v  81.8215 27.3362 -187.5407
v  81.8215 0.1970 -187.5407
v  -0.0000 27.3362 -144.7832
v  37.9478 27.3362 -144.7832
v  81.8215 0.1970 187.5407
v  81.8215 27.3362 187.5407
v  37.9478 27.3362 187.5407
v  37.9478 0.1970 187.5407
v  125.6952 27.3362 144.7832
v  81.8215 27.3362 144.7832
v  125.6952 27.3362 86.8699
v  178.2174 0.1970 28.9566
v  178.2174 27.3362 28.9566
v  178.2173 27.3362 86.8699
v  178.2173 0.1970 86.8699
v  125.6952 27.3362 -28.9567
v  125.6952 27.3362 28.9566
v  178.2173 0.1970 -86.8699
v  178.2173 27.3362 -86.8699
v  178.2173 27.3362 -28.9567
v  178.2173 0.1970 -28.9567
v  125.6952 27.3362 -86.8699
v  70.2847 186.4087 -146.9813
v  70.2847 186.4087 -124.3688
v  37.9478 27.3362 144.7832
v  32.5972 186.4087 146.9813
v  32.5972 186.4087 124.3688
v  130.5847 186.4087 74.6213
v  107.9722 186.4087 74.6213
v  130.5847 186.4087 -24.8738
v  107.9722 186.4087 -24.8738
v  -0.0000 186.4087 -124.3688
v  -0.0000 186.4087 -74.6213
v  32.5972 186.4087 -74.6213
v  32.5971 186.4087 -124.3688
v  130.5847 186.4087 24.8738
v  107.9722 186.4087 24.8738
v  130.5847 186.4087 -74.6213
v  107.9722 186.4087 -74.6213
v  32.5971 186.4087 -146.9813
v  70.2847 186.4087 146.9813
v  70.2847 186.4087 124.3688
v  107.9722 186.4087 124.3688
v  70.2847 186.4087 74.6213
v  70.2847 186.4087 24.8738
v  70.2847 186.4087 -24.8738
v  70.2847 186.4087 -74.6213
v  107.9722 186.4087 -124.3688
v  32.5972 177.4242 -74.6213
v  32.5972 177.4242 -24.8738
v  70.2847 177.4242 -24.8738
v  70.2847 177.4242 -74.6213
v  32.5972 177.4242 24.8738
v  70.2847 177.4242 24.8738
v  32.5972 177.4242 74.6213
v  70.2847 177.4242 74.6213
v  32.5972 186.4087 74.6213
v  0.0000 27.3362 144.7832
v  0.0000 186.4087 74.6213
v  0.0000 186.4087 124.3688
v  0.0000 177.4242 24.8738
v  0.0000 177.4242 74.6213
v  -0.0000 177.4242 -24.8738
v  -0.0000 177.4242 -74.6213
v  -125.6952 0.1970 -144.7832
v  -81.8215 0.1970 -144.7832
v  -81.8215 0.1970 -86.8699
v  -125.6952 0.1970 -86.8699
v  -37.9478 0.1970 -144.7832
v  -37.9478 0.1970 -86.8699
v  -81.8215 0.1970 -28.9566
v  -125.6952 0.1970 -28.9566
v  -37.9478 0.1970 -28.9566
v  -81.8215 0.1970 28.9567
v  -125.6952 0.1970 28.9567
v  -37.9478 0.1970 28.9567
v  -81.8215 0.1970 86.8700
v  -125.6952 0.1970 86.8700
v  -37.9478 0.1970 86.8699
v  -81.8215 0.1970 144.7832
v  -125.6952 0.1970 144.7833
v  -37.9478 0.1970 144.7832
v  -125.6952 27.3362 -144.7832
v  -81.8215 27.3362 -144.7832
v  -81.8215 27.3362 -187.5408
v  -37.9478 27.3362 -187.5407
v  -37.9478 0.1970 -187.5407
v  -81.8215 0.1970 -187.5408
v  -37.9478 27.3362 -144.7832
v  -37.9478 27.3362 187.5407
v  -81.8215 27.3362 187.5407
v  -81.8215 0.1970 187.5407
v  -37.9478 0.1970 187.5407
v  -81.8215 27.3362 144.7832
v  -125.6952 27.3362 144.7833
v  -125.6952 27.3362 86.8700
v  -178.2173 27.3362 86.8700
v  -178.2173 27.3362 28.9567
v  -178.2173 0.1970 28.9567
v  -178.2173 0.1970 86.8700
v  -125.6952 27.3362 28.9567
v  -125.6952 27.3362 -28.9566
v  -178.2173 27.3362 -28.9566
v  -178.2173 27.3362 -86.8699
v  -178.2173 0.1970 -86.8699
v  -178.2173 0.1970 -28.9566
v  -125.6952 27.3362 -86.8699
v  -70.2847 186.4087 -146.9813
v  -70.2847 186.4087 -124.3688
v  -32.5971 186.4087 146.9813
v  -37.9478 27.3362 144.7832
v  -32.5971 186.4087 124.3688
v  -130.5847 186.4087 74.6213
v  -107.9722 186.4087 74.6213
v  -130.5847 186.4087 -24.8737
v  -107.9722 186.4087 -24.8737
v  -32.5972 186.4087 -124.3688
v  -32.5972 186.4087 -74.6213
v  -107.9722 186.4087 24.8738
v  -130.5847 186.4087 24.8738
v  -107.9722 186.4087 -74.6213
v  -130.5847 186.4087 -74.6213
v  -32.5972 186.4087 -146.9813
v  -70.2847 186.4087 124.3688
v  -70.2847 186.4087 146.9813
v  -107.9722 186.4087 124.3688
v  -70.2847 186.4087 74.6213
v  -70.2847 186.4087 24.8738
v  -70.2847 186.4087 -24.8738
v  -70.2847 186.4087 -74.6213
v  -107.9722 186.4087 -124.3688
v  -32.5972 177.4242 -74.6213
v  -70.2847 177.4242 -74.6213
v  -70.2847 177.4242 -24.8738
v  -32.5971 177.4242 -24.8738
v  -70.2847 177.4242 24.8738
v  -32.5972 177.4242 24.8738
v  -70.2847 177.4242 74.6213
v  -32.5972 177.4242 74.6213
v  -32.5972 186.4087 74.6213
# 168 vertices

vn 0.0000 -1.0000 -0.0000
vn -0.0000 0.0000 -1.0000
vn -0.0000 0.0652 -0.9979
vn -0.0000 0.0615 -0.9981
vn 0.0000 0.0000 -1.0000
vn 0.0000 0.1258 -0.9921
vn 0.0000 0.1217 -0.9926
vn -0.0000 0.0638 -0.9980
vn -0.0000 0.0631 -0.9980
vn -0.0000 0.0000 1.0000
vn -0.0000 0.1217 0.9926
vn -0.0000 0.1258 0.9921
vn 0.0000 0.0000 1.0000
vn 0.0000 0.0615 0.9981
vn 0.0000 0.0652 0.9979
vn 1.0000 0.0000 0.0000
vn 0.9984 0.0568 0.0000
vn 0.9986 0.0531 0.0000
vn 0.9893 0.1461 0.0000
vn 0.9899 0.1415 0.0000
vn 1.0000 0.0000 -0.0000
vn 0.9985 0.0550 -0.0000
vn 0.9986 0.0531 -0.0000
vn 0.9984 0.0568 -0.0000
vn -1.0000 0.0000 0.0000
vn 0.9974 0.0723 0.0000
vn -0.9994 -0.0336 0.0000
vn 0.0000 0.0768 0.9970
vn 0.0000 -0.0257 0.9997
vn 0.0000 1.0000 -0.0000
vn 0.0000 0.0631 0.9980
vn 0.0000 0.0638 0.9980
vn 0.0000 0.0631 -0.9980
vn -0.9986 0.0531 -0.0000
vn -0.9984 0.0568 -0.0000
vn -1.0000 0.0000 -0.0000
vn -0.9899 0.1415 0.0000
vn -0.9893 0.1461 0.0000
vn -0.9985 0.0550 0.0000
vn -0.9974 0.0723 0.0000
vn 0.9994 -0.0336 -0.0000
vn -0.0000 0.0631 0.9980
vn -0.0000 0.1273 -0.9919
vn 0.0000 0.2471 -0.9690
vn -0.0000 0.2471 -0.9690
vn 0.0000 0.2471 0.9690
vn 0.0000 0.1273 0.9919
vn 0.9939 0.1107 0.0000
vn 0.9580 0.2869 -0.0000
vn 0.9939 0.1107 -0.0000
vn 0.9580 0.2869 0.0000
vn -0.0000 -0.0257 -0.9997
vn -0.0000 0.0768 -0.9970
vn 0.0000 0.1273 -0.9919
vn -0.9939 0.1107 -0.0000
vn -0.9580 0.2869 -0.0000
vn -0.9939 0.1107 0.0000
vn -0.9580 0.2869 0.0000
vn -0.0000 0.1273 0.9919
# 59 vertex normals

vt 0.0874 0.5691 0.0000
vt 0.2533 0.5691 0.0000
vt 0.2533 0.6948 0.0000
vt 0.0874 0.6948 0.0000
vt 0.2533 0.8205 0.0000
vt 0.0874 0.8205 0.0000
vt 0.2533 0.9292 0.0000
vt 0.0874 0.9292 0.0000
vt 0.4192 0.5691 0.0000
vt 0.4192 0.6948 0.0000
vt 0.4192 0.8205 0.0000
vt 0.4192 0.9292 0.0000
vt 0.5851 0.5691 0.0000
vt 0.5851 0.6948 0.0000
vt 0.5851 0.8205 0.0000
vt 0.5851 0.9292 0.0000
vt 0.7510 0.5691 0.0000
vt 0.7510 0.6948 0.0000
vt 0.7510 0.8205 0.0000
vt 0.7510 0.9292 0.0000
vt 0.9169 0.5691 0.0000
vt 0.9169 0.6948 0.0000
vt 0.9169 0.8205 0.0000
vt 0.9169 0.9292 0.0000
vt 0.2044 0.3689 0.0000
vt 0.2046 0.3180 0.0000
vt 0.2598 0.3180 0.0000
vt 0.2596 0.3689 0.0000
vt 0.1161 0.3689 0.0000
vt 0.1163 0.3180 0.0000
vt 0.1715 0.3180 0.0000
vt 0.1713 0.3689 0.0000
vt 0.0352 0.3689 0.0000
vt 0.0354 0.3180 0.0000
vt 0.0831 0.3180 0.0000
vt 0.0830 0.3689 0.0000
vt 0.8448 0.3689 0.0000
vt 0.8450 0.3180 0.0000
vt 0.9002 0.3180 0.0000
vt 0.9000 0.3689 0.0000
vt 0.7565 0.3689 0.0000
vt 0.7567 0.3180 0.0000
vt 0.8119 0.3180 0.0000
vt 0.8117 0.3689 0.0000
vt 0.6836 0.3689 0.0000
vt 0.6838 0.3180 0.0000
vt 0.5776 0.3689 0.0000
vt 0.5778 0.3180 0.0000
vt 0.6507 0.3180 0.0000
vt 0.6505 0.3689 0.0000
vt 0.4716 0.3689 0.0000
vt 0.4718 0.3180 0.0000
vt 0.5447 0.3180 0.0000
vt 0.5445 0.3689 0.0000
vt 0.3656 0.3689 0.0000
vt 0.3658 0.3180 0.0000
vt 0.4387 0.3180 0.0000
vt 0.4385 0.3689 0.0000
vt 0.3327 0.3180 0.0000
vt 0.3325 0.3689 0.0000
vt 0.0120 0.8205 0.0000
vt 0.0120 0.6948 0.0000
vt 0.9923 0.6948 0.0000
vt 0.9923 0.8205 0.0000
vt 0.5851 0.4937 0.0000
vt 0.7510 0.4937 0.0000
vt 0.2533 0.4937 0.0000
vt 0.4192 0.4937 0.0000
vt 0.1724 0.0199 0.0000
vt 0.2055 0.0199 0.0000
vt 0.9333 0.3180 0.0000
vt 0.9011 0.0199 0.0000
vt 0.9343 0.0199 0.0000
vt 0.6516 0.0199 0.0000
vt 0.6847 0.0199 0.0000
vt 0.4396 0.0199 0.0000
vt 0.4727 0.0199 0.0000
vt 0.9171 0.9280 0.0000
vt 0.7507 0.9280 0.0000
vt 0.7507 0.8189 0.0000
vt 0.9171 0.8189 0.0000
vt 0.2515 0.4911 0.0000
vt 0.4179 0.4911 0.0000
vt 0.4179 0.5668 0.0000
vt 0.2515 0.5668 0.0000
vt 0.5843 0.5668 0.0000
vt 0.5843 0.4911 0.0000
vt 0.7507 0.4911 0.0000
vt 0.7507 0.5668 0.0000
vt 0.9928 0.6929 0.0000
vt 0.9928 0.8189 0.0000
vt 0.9171 0.6928 0.0000
vt 0.0851 0.8189 0.0000
vt 0.0094 0.8189 0.0000
vt 0.0094 0.6929 0.0000
vt 0.0851 0.6928 0.0000
vt 0.0851 0.5668 0.0000
vt 0.2515 0.6928 0.0000
vt 0.4179 0.6928 0.0000
vt 0.5843 0.6928 0.0000
vt 0.7507 0.6928 0.0000
vt 0.9171 0.5668 0.0000
vt 0.5843 0.8189 0.0000
vt 0.4179 0.8189 0.0000
vt 0.2515 0.8189 0.0000
vt 0.9332 0.3689 0.0000
vt 0.9811 0.3180 0.0000
vt 0.9809 0.3689 0.0000
vt 0.2515 0.9280 0.0000
vt 0.0851 0.9280 0.0000
vt 0.4179 0.9280 0.0000
vt 0.5843 0.9280 0.0000
vt 0.2607 0.0199 0.0000
vt 0.1172 0.0199 0.0000
vt 0.0363 0.0199 0.0000
vt 0.0841 0.0199 0.0000
vt 0.8459 0.0199 0.0000
vt 0.7576 0.0199 0.0000
vt 0.8128 0.0199 0.0000
vt 0.5787 0.0199 0.0000
vt 0.5456 0.0199 0.0000
vt 0.3667 0.0199 0.0000
vt 0.3336 0.0199 0.0000
vt 0.9820 0.0199 0.0000
# 124 texture coords

g Box005
usemtl Material__25
s 2
f 1/1/1 2/2/1 3/3/1 4/4/1 
f 4/4/1 3/3/1 5/5/1 6/6/1 
f 5/5/1 7/7/1 8/8/1 6/6/1 
f 2/2/1 9/9/1 10/10/1 3/3/1 
f 3/3/1 10/10/1 11/11/1 5/5/1 
f 11/11/1 12/12/1 7/7/1 5/5/1 
f 9/9/1 13/13/1 14/14/1 10/10/1 
f 10/10/1 14/14/1 15/15/1 11/11/1 
f 15/15/1 16/16/1 12/12/1 11/11/1 
f 13/13/1 17/17/1 18/18/1 14/14/1 
f 14/14/1 18/18/1 19/19/1 15/15/1 
f 19/19/1 20/20/1 16/16/1 15/15/1 
f 17/17/1 21/21/1 22/22/1 18/18/1 
f 18/18/1 22/22/1 23/23/1 19/19/1 
f 23/23/1 24/24/1 20/20/1 19/19/1 
s 8
f 4/25/2 25/26/3 26/27/4 1/28/2 
f 27/29/5 28/30/6 29/31/7 30/32/5 
f 8/33/2 31/34/8 32/35/9 6/36/2 
s 32
f 33/37/10 34/38/11 35/39/12 36/40/10 
f 21/41/13 37/42/14 38/43/15 22/44/13 
s 64
f 17/45/16 39/46/17 37/42/18 21/41/16 
f 40/47/16 41/48/19 42/49/20 43/50/16 
f 9/51/21 44/52/22 45/53/22 13/54/21 
f 46/55/16 47/56/20 48/57/19 49/58/16 
f 1/28/21 26/27/23 50/59/24 2/60/21 
s off
f 4/4/1 6/6/1 27/61/1 30/62/1 
f 32/35/25 28/30/25 27/29/25 6/36/25 
f 23/23/1 22/22/1 33/63/1 36/64/1 
f 38/43/16 34/38/16 33/37/16 22/44/16 
f 17/17/1 13/13/1 40/65/1 43/66/1 
f 45/53/2 41/48/2 40/47/2 13/54/2 
f 9/9/1 2/2/1 46/67/1 49/68/1 
f 50/59/2 47/56/2 46/55/2 2/60/2 
f 25/26/26 29/31/26 51/69/26 52/70/26 
f 53/71/27 35/39/27 54/72/27 55/73/27 
f 39/46/28 42/49/28 56/74/28 57/75/28 
f 44/52/29 48/57/29 58/76/29 59/77/29 
f 60/78/30 61/79/30 62/80/30 63/81/30 
f 56/82/30 64/83/30 65/84/30 57/85/30 
f 59/86/30 58/87/30 66/88/30 67/89/30 
f 51/90/30 68/91/30 63/81/30 52/92/30 
f 55/93/30 54/94/30 69/95/30 70/96/30 
f 71/97/30 57/85/30 72/98/30 70/96/30 
f 57/85/30 65/84/30 73/99/30 72/98/30 
f 65/84/30 59/86/30 74/100/30 73/99/30 
f 59/86/30 67/89/30 75/101/30 74/100/30 
f 67/89/30 76/102/30 52/92/30 75/101/30 
f 63/81/30 62/80/30 75/101/30 52/92/30 
f 77/80/30 78/103/30 79/100/30 80/101/30 
f 78/103/30 81/104/30 82/99/30 79/100/30 
f 81/104/30 83/105/30 84/98/30 82/99/30 
f 85/105/30 55/93/30 70/96/30 72/98/30 
s 32
f 23/106/13 53/71/31 86/107/32 24/108/13 
s off
f 55/93/30 85/105/30 87/109/30 88/110/30 
f 83/105/30 81/104/30 89/111/30 90/109/30 
f 81/104/30 78/103/30 91/112/30 89/111/30 
f 78/103/30 77/80/30 92/79/30 91/112/30 
s 2
f 93/1/1 94/4/1 95/3/1 96/2/1 
f 94/4/1 97/6/1 98/5/1 95/3/1 
f 98/5/1 97/6/1 8/8/1 7/7/1 
f 96/2/1 95/3/1 99/10/1 100/9/1 
f 95/3/1 98/5/1 101/11/1 99/10/1 
f 101/11/1 98/5/1 7/7/1 12/12/1 
f 100/9/1 99/10/1 102/14/1 103/13/1 
f 99/10/1 101/11/1 104/15/1 102/14/1 
f 104/15/1 101/11/1 12/12/1 16/16/1 
f 103/13/1 102/14/1 105/18/1 106/17/1 
f 102/14/1 104/15/1 107/19/1 105/18/1 
f 107/19/1 104/15/1 16/16/1 20/20/1 
f 106/17/1 105/18/1 108/22/1 109/21/1 
f 105/18/1 107/19/1 110/23/1 108/22/1 
f 110/23/1 107/19/1 20/20/1 24/24/1 
s 8
f 111/27/4 112/26/3 94/25/2 93/28/2 
f 113/31/7 114/30/6 115/29/5 116/32/5 
f 117/35/33 31/34/8 8/33/2 97/36/5 
s 32
f 118/39/12 119/38/11 120/37/10 121/40/10 
f 122/43/15 123/42/14 109/41/13 108/44/13 
s 64
f 123/42/34 124/46/35 106/45/36 109/41/36 
f 125/49/37 126/48/38 127/47/25 128/50/25 
f 129/53/39 130/52/39 100/51/25 103/54/25 
f 131/57/38 132/56/37 133/55/25 134/58/25 
f 135/59/35 111/27/34 93/28/36 96/60/36 
s off
f 94/4/1 116/62/1 115/61/1 97/6/1 
f 115/29/16 114/30/16 117/35/16 97/36/16 
f 110/23/1 121/64/1 120/63/1 108/22/1 
f 120/37/25 119/38/25 122/43/25 108/44/25 
f 106/17/1 128/66/1 127/65/1 103/13/1 
f 127/47/2 126/48/2 129/53/2 103/54/2 
f 100/9/1 134/68/1 133/67/1 96/2/1 
f 133/55/2 132/56/2 135/59/2 96/60/2 
f 136/69/40 113/31/40 112/26/40 137/70/40 
f 138/72/41 118/39/41 139/71/41 140/73/41 
f 141/74/28 125/49/28 124/46/28 142/75/28 
f 143/76/29 131/57/29 130/52/29 144/77/29 
f 60/78/30 145/81/30 146/80/30 61/79/30 
f 141/82/30 142/85/30 147/84/30 148/83/30 
f 144/86/30 149/89/30 150/88/30 143/87/30 
f 136/90/30 137/92/30 145/81/30 151/91/30 
f 140/93/30 152/96/30 153/95/30 138/94/30 
f 154/97/30 152/96/30 155/98/30 142/85/30 
f 142/85/30 155/98/30 156/99/30 147/84/30 
f 147/84/30 156/99/30 157/100/30 144/86/30 
f 144/86/30 157/100/30 158/101/30 149/89/30 
f 149/89/30 158/101/30 137/92/30 159/102/30 
f 145/81/30 137/92/30 158/101/30 146/80/30 
f 160/80/30 161/101/30 162/100/30 163/103/30 
f 163/103/30 162/100/30 164/99/30 165/104/30 
f 165/104/30 164/99/30 166/98/30 167/105/30 
f 168/105/30 155/98/30 152/96/30 140/93/30 
s 32
f 86/107/32 139/71/42 110/106/10 24/108/13 
s off
f 140/93/30 88/110/30 87/109/30 168/105/30 
f 167/105/30 90/109/30 89/111/30 165/104/30 
f 165/104/30 89/111/30 91/112/30 163/103/30 
f 163/103/30 91/112/30 92/79/30 160/80/30 
s 8
f 52/70/43 76/113/43 26/27/4 25/26/3 
f 68/114/44 51/69/45 29/31/7 28/30/6 
f 60/115/43 63/116/43 32/35/9 31/34/8 
s 32
f 69/117/46 54/72/46 35/39/12 34/38/11 
f 71/118/47 70/119/47 38/43/15 37/42/14 
s 64
f 57/75/48 71/118/48 37/42/18 39/46/17 
f 64/120/49 56/74/49 42/49/20 41/48/19 
f 59/77/50 65/121/50 45/53/22 44/52/22 
f 66/122/51 58/76/51 48/57/19 47/56/20 
f 76/113/50 67/123/48 50/59/24 26/27/23 
s off
f 63/116/27 68/114/27 28/30/27 32/35/27 
f 70/119/26 69/117/26 34/38/26 38/43/26 
f 65/121/52 64/120/52 41/48/52 45/53/52 
f 67/123/53 66/122/53 47/56/53 50/59/53 
f 4/25/16 30/32/16 29/31/16 25/26/16 
f 23/106/25 36/40/25 35/39/25 53/71/25 
f 17/45/13 43/50/13 42/49/13 39/46/13 
f 9/51/13 49/58/13 48/57/13 44/52/13 
s 32
f 55/73/47 88/124/47 86/107/32 53/71/31 
s 8
f 159/113/43 137/70/43 112/26/3 111/27/4 
f 136/69/44 151/114/45 114/30/6 113/31/7 
f 145/116/54 60/115/43 31/34/8 117/35/33 
s 32
f 138/72/46 153/117/46 119/38/11 118/39/12 
f 152/119/47 154/118/47 123/42/14 122/43/15 
s 64
f 154/118/55 142/75/55 124/46/35 123/42/34 
f 141/74/56 148/120/56 126/48/38 125/49/37 
f 147/121/57 144/77/57 130/52/39 129/53/39 
f 143/76/58 150/122/58 132/56/37 131/57/38 
f 149/123/55 159/113/55 111/27/34 135/59/35 
s off
f 151/114/41 145/116/41 117/35/41 114/30/41 
f 153/117/40 152/119/40 122/43/40 119/38/40 
f 148/120/52 147/121/52 129/53/52 126/48/52 
f 150/122/53 149/123/53 135/59/53 132/56/53 
f 116/32/25 94/25/25 112/26/25 113/31/25 
f 121/40/21 110/106/21 139/71/21 118/39/21 
f 128/50/10 106/45/10 124/46/10 125/49/10 
f 134/58/13 100/51/13 130/52/13 131/57/13 
s 32
f 88/124/47 140/73/59 139/71/42 86/107/32 
s off
f 85/105/2 72/98/2 84/98/2 83/105/2 
f 72/98/25 73/99/25 82/99/25 84/98/25 
f 73/99/25 74/100/25 79/100/25 82/99/25 
f 74/100/25 75/101/25 80/101/25 79/100/25 
f 75/101/13 62/80/13 77/80/13 80/101/13 
f 62/80/13 61/79/13 92/79/13 77/80/13 
f 61/79/13 146/80/13 160/80/13 92/79/13 
f 146/80/13 158/101/13 161/101/13 160/80/13 
f 158/101/21 157/100/21 162/100/21 161/101/21 
f 157/100/16 156/99/16 164/99/16 162/100/16 
f 156/99/21 155/98/21 166/98/21 164/99/21 
f 155/98/2 168/105/2 167/105/2 166/98/2 
f 168/105/2 87/109/2 90/109/2 167/105/2 
f 87/109/2 85/105/2 83/105/2 90/109/2 
# 166 polygons

#
# object Tile004
#

v  -192.0000 0.0000 -64.0000
v  -64.0000 0.0000 -64.0000
v  -64.0000 0.0000 -192.0000
v  -192.0000 0.0000 -192.0000
v  64.0000 0.0000 -64.0000
v  64.0000 0.0000 -192.0000
v  192.0000 0.0000 -64.0000
v  192.0000 0.0000 -192.0000
v  64.0000 0.0000 192.0000
v  192.0000 0.0000 192.0000
v  192.0000 0.0000 64.0000
v  64.0000 0.0000 64.0000
v  -64.0000 0.0000 192.0000
v  -64.0000 0.0000 64.0000
v  -192.0000 0.0000 192.0000
v  -192.0000 0.0000 64.0000
# 16 vertices

vn 0.0000 1.0000 -0.0000
# 1 vertex normals

vt 0.0000 0.0000 0.0000
vt 1.0000 0.0000 0.0000
vt 1.0000 1.0000 0.0000
vt 0.0000 1.0000 0.0000
# 4 texture coords

g Tile004
usemtl Material__29
s 1
f 169/125/60 170/126/60 171/127/60 172/128/60 
usemtl Material__53
f 170/125/60 173/126/60 174/127/60 171/128/60 
usemtl Material__29
f 173/125/60 175/126/60 176/127/60 174/128/60 
f 177/125/60 178/126/60 179/127/60 180/128/60 
usemtl Material__53
f 180/125/60 179/126/60 175/127/60 173/128/60 
f 181/125/60 177/126/60 180/127/60 182/128/60 
usemtl Material__29
f 183/125/60 181/126/60 182/127/60 184/128/60 
usemtl Material__53
f 184/125/60 182/126/60 170/127/60 169/128/60 
# 8 polygons

