# 3ds Max Wavefront OBJ Exporter v0.97b - (c)2007 guruware
# File Created: 26.01.2014 11:33:46

mtllib Skyscraper_04.mtl

#
# object Tile
#

v  -64.0000 0.0000 -64.0000
v  -64.0000 0.0000 64.0000
v  64.0000 0.0000 64.0000
v  64.0000 0.0000 -64.0000
# 4 vertices

vn 0.0000 1.0000 -0.0000
# 1 vertex normals

vt 0.0000 1.0000 0.0000
vt 0.0000 0.0000 0.0000
vt 1.0000 0.0000 0.0000
vt 1.0000 1.0000 0.0000
# 4 texture coords

g Tile
usemtl Material__28
s 1
f 1/1/1 2/2/1 3/3/1 4/4/1 
# 1 polygons

#
# object Tile004
#

#
# object Box004
#

v  -55.7181 0.0000 55.7181
v  -55.7181 0.0000 -55.7181
v  55.7181 0.0000 -55.7181
v  55.7181 0.0000 55.7181
v  55.7181 115.9909 55.7181
v  -55.7181 115.9909 55.7181
v  55.7181 115.9909 -55.7181
v  -55.7181 115.9909 -55.7181
v  22.2873 249.7144 22.2873
v  22.2873 249.7144 -22.2873
v  -22.2873 249.7144 -22.2873
v  -22.2873 249.7144 22.2873
v  44.5745 114.3380 44.5745
v  -44.5745 115.9909 44.5745
v  44.5745 114.3380 -44.5745
v  -44.5745 115.9909 -44.5745
v  44.5745 158.9125 44.5745
v  -44.5745 160.5654 44.5745
v  44.5745 158.9125 -44.5745
v  -44.5745 160.5654 -44.5745
v  33.4309 160.5654 33.4309
v  -33.4309 160.5654 33.4309
v  33.4309 160.5654 -33.4309
v  -33.4309 160.5654 -33.4309
v  33.4309 205.1399 33.4309
v  -33.4309 205.1399 33.4309
v  33.4309 205.1399 -33.4309
v  -33.4309 205.1399 -33.4309
v  22.2873 205.1399 22.2873
v  -22.2873 205.1399 22.2873
v  22.2873 205.1399 -22.2873
v  -22.2873 205.1399 -22.2873
# 32 vertices

vn 0.0000 -1.0000 -0.0000
vn 0.0000 0.0000 1.0000
vn 1.0000 0.0000 -0.0000
vn 0.0000 0.0000 -1.0000
vn -1.0000 0.0000 -0.0000
vn 0.0000 1.0000 -0.0000
vn 0.0082 0.9972 -0.0740
vn -0.1467 0.9892 -0.0000
vn 0.0082 0.9972 0.0740
vn 0.0106 0.9972 0.0740
vn 0.1467 0.9892 -0.0000
vn 0.0106 0.9972 -0.0740
# 12 vertex normals

vt 0.9605 0.6743 0.0000
vt 0.9605 0.9587 0.0000
vt 0.6761 0.9587 0.0000
vt 0.6761 0.6743 0.0000
vt 0.5033 0.0194 0.0000
vt 0.7401 0.0194 0.0000
vt 0.7401 0.2659 0.0000
vt 0.5033 0.2659 0.0000
vt 0.9770 0.0193 0.0000
vt 0.9770 0.2659 0.0000
vt 0.0296 0.0193 0.0000
vt 0.2664 0.0193 0.0000
vt 0.2664 0.2659 0.0000
vt 0.0295 0.2658 0.0000
vt 0.0674 0.9444 0.0000
vt 0.0675 0.6753 0.0000
vt 0.3366 0.6754 0.0000
vt 0.3365 0.9445 0.0000
vt 0.7164 0.2898 0.0000
vt 0.5269 0.2895 0.0000
vt 0.9534 0.2898 0.0000
vt 0.7639 0.2899 0.0000
vt 0.2427 0.2895 0.0000
vt 0.0532 0.2897 0.0000
vt 0.4796 0.2896 0.0000
vt 0.2901 0.2896 0.0000
vt 0.7145 0.3845 0.0000
vt 0.5250 0.3842 0.0000
vt 0.9534 0.3846 0.0000
vt 0.7639 0.3846 0.0000
vt 0.2446 0.3842 0.0000
vt 0.0551 0.3845 0.0000
vt 0.4796 0.3843 0.0000
vt 0.2901 0.3843 0.0000
vt 0.6908 0.4084 0.0000
vt 0.5486 0.4079 0.0000
vt 0.9297 0.4085 0.0000
vt 0.7876 0.4086 0.0000
vt 0.2210 0.4079 0.0000
vt 0.0788 0.4083 0.0000
vt 0.4559 0.4080 0.0000
vt 0.3138 0.4080 0.0000
vt 0.6905 0.5031 0.0000
vt 0.5484 0.5027 0.0000
vt 0.9298 0.5033 0.0000
vt 0.7876 0.5033 0.0000
vt 0.2212 0.5026 0.0000
vt 0.0791 0.5030 0.0000
vt 0.4559 0.5027 0.0000
vt 0.3138 0.5027 0.0000
vt 0.6667 0.5267 0.0000
vt 0.5720 0.5264 0.0000
vt 0.9061 0.5269 0.0000
vt 0.8113 0.5270 0.0000
vt 0.1976 0.5264 0.0000
vt 0.1028 0.5266 0.0000
vt 0.4322 0.5264 0.0000
vt 0.3374 0.5264 0.0000
vt 0.6664 0.6215 0.0000
vt 0.5717 0.6212 0.0000
vt 0.9061 0.6217 0.0000
vt 0.8114 0.6217 0.0000
vt 0.1979 0.6211 0.0000
vt 0.1031 0.6214 0.0000
vt 0.4322 0.6212 0.0000
vt 0.3374 0.6212 0.0000
# 66 texture coords

g Box004
usemtl Material__25
s 2
f 5/5/2 6/6/2 7/7/2 8/8/2 
s 8
f 5/9/3 8/10/3 9/11/3 10/12/3 
s 16
f 8/10/4 7/13/4 11/14/4 9/11/4 
s 32
f 7/15/5 6/16/5 12/17/5 11/18/5 
s 64
f 6/16/6 5/9/6 10/12/6 12/17/6 
s off
f 13/19/7 14/20/7 15/21/7 16/22/7 
f 10/12/8 9/11/8 17/23/8 18/24/8 
f 9/11/9 11/14/9 19/25/9 17/26/9 
f 11/18/10 12/17/10 20/27/10 19/28/10 
f 12/17/7 10/12/7 18/29/7 20/30/7 
f 18/24/3 17/23/3 21/31/3 22/32/3 
f 17/26/4 19/25/4 23/33/4 21/34/4 
f 19/28/5 20/27/5 24/35/5 23/36/5 
f 20/30/6 18/29/6 22/37/6 24/38/6 
f 22/32/11 21/31/11 25/39/11 26/40/11 
f 21/34/12 23/33/12 27/41/12 25/42/12 
f 23/36/13 24/35/13 28/43/13 27/44/13 
f 24/38/7 22/37/7 26/45/7 28/46/7 
f 26/40/3 25/39/3 29/47/3 30/48/3 
f 25/42/4 27/41/4 31/49/4 29/50/4 
f 27/44/5 28/43/5 32/51/5 31/52/5 
f 28/46/6 26/45/6 30/53/6 32/54/6 
f 30/48/7 29/47/7 33/55/7 34/56/7 
f 29/50/7 31/49/7 35/57/7 33/58/7 
f 31/52/7 32/51/7 36/59/7 35/60/7 
f 32/54/7 30/53/7 34/61/7 36/62/7 
f 34/56/3 33/55/3 13/63/3 16/64/3 
f 33/58/4 35/57/4 14/65/4 13/66/4 
f 35/60/5 36/59/5 15/67/5 14/68/5 
f 36/62/6 34/61/6 16/69/6 15/70/6 
# 30 polygons

