# 3ds Max Wavefront OBJ Exporter v0.97b - (c)2007 guruware
# File Created: 26.01.2014 11:29:51

mtllib Skyscraper_01.mtl

#
# object Tile
#

v  -64.0000 0.0000 -64.0000
v  -64.0000 0.0000 64.0000
v  64.0000 0.0000 64.0000
v  64.0000 0.0000 -64.0000
# 4 vertices

vn 0.0000 1.0000 -0.0000
# 1 vertex normals

vt 0.0000 1.0000 0.0000
vt 0.0000 0.0000 0.0000
vt 1.0000 0.0000 0.0000
vt 1.0000 1.0000 0.0000
# 4 texture coords

g Tile
usemtl Material__28
s 1
f 1/1/1 2/2/1 3/3/1 4/4/1 
# 1 polygons

#
# object Tile004
#

#
# object Box001
#

v  -58.6207 -4.5972 58.6207
v  -58.6207 -4.5972 -58.6207
v  58.6207 -4.5972 -58.6207
v  58.6207 -4.5972 58.6207
v  -23.4483 311.9544 23.4483
v  23.4483 311.9544 23.4483
v  23.4483 311.9544 -23.4483
v  -23.4483 311.9544 -23.4483
v  58.6207 171.2648 58.6207
v  -58.6207 171.2648 58.6207
v  58.6207 171.2648 -58.6207
v  -58.6207 171.2648 -58.6207
v  46.8965 171.2648 46.8965
v  -46.8965 171.2648 46.8965
v  46.8965 171.2648 -46.8965
v  -46.8965 171.2648 -46.8965
v  46.8965 194.7131 46.8965
v  -46.8965 194.7131 46.8965
v  46.8965 194.7131 -46.8965
v  -46.8965 194.7131 -46.8965
v  35.1724 194.7131 35.1724
v  -35.1724 194.7131 35.1724
v  35.1724 194.7131 -35.1724
v  -35.1724 194.7131 -35.1724
v  35.1724 241.6096 35.1724
v  -35.1724 241.6096 35.1724
v  35.1724 241.6096 -35.1724
v  -35.1724 241.6096 -35.1724
v  23.4483 241.6096 23.4483
v  -23.4483 241.6096 23.4483
v  23.4483 241.6096 -23.4483
v  -23.4483 241.6096 -23.4483
# 32 vertices

vn 0.0000 -1.0000 -0.0000
vn 0.0000 1.0000 -0.0000
vn 0.0000 0.0000 1.0000
vn 1.0000 0.0000 -0.0000
vn 0.0000 0.0000 -1.0000
vn -1.0000 0.0000 -0.0000
# 6 vertex normals

vt 0.7955 0.8017 0.0000
vt 0.7955 0.9517 0.0000
vt 0.9537 0.9517 0.0000
vt 0.9537 0.8017 0.0000
vt 0.0380 0.7677 0.0000
vt 0.2528 0.7677 0.0000
vt 0.2528 0.9714 0.0000
vt 0.0380 0.9714 0.0000
vt 0.0143 0.0210 0.0000
vt 0.2582 0.0210 0.0000
vt 0.2582 0.3869 0.0000
vt 0.0143 0.3869 0.0000
vt 0.5022 0.0210 0.0000
vt 0.5022 0.3869 0.0000
vt 0.7462 0.0210 0.0000
vt 0.7462 0.3869 0.0000
vt 0.9901 0.0210 0.0000
vt 0.9901 0.3869 0.0000
vt 0.2338 0.4113 0.0000
vt 0.0387 0.4113 0.0000
vt 0.4778 0.4113 0.0000
vt 0.2826 0.4113 0.0000
vt 0.7218 0.4113 0.0000
vt 0.5266 0.4113 0.0000
vt 0.9658 0.4113 0.0000
vt 0.7706 0.4113 0.0000
vt 0.2338 0.4601 0.0000
vt 0.0387 0.4601 0.0000
vt 0.4778 0.4601 0.0000
vt 0.2826 0.4601 0.0000
vt 0.7218 0.4601 0.0000
vt 0.5266 0.4601 0.0000
vt 0.9658 0.4601 0.0000
vt 0.7706 0.4601 0.0000
vt 0.2094 0.4845 0.0000
vt 0.0631 0.4845 0.0000
vt 0.4534 0.4845 0.0000
vt 0.3070 0.4845 0.0000
vt 0.6974 0.4845 0.0000
vt 0.5510 0.4845 0.0000
vt 0.9414 0.4845 0.0000
vt 0.7950 0.4845 0.0000
vt 0.2094 0.5821 0.0000
vt 0.0631 0.5821 0.0000
vt 0.4534 0.5821 0.0000
vt 0.3070 0.5821 0.0000
vt 0.6974 0.5821 0.0000
vt 0.5510 0.5821 0.0000
vt 0.9414 0.5821 0.0000
vt 0.7950 0.5821 0.0000
vt 0.1850 0.6065 0.0000
vt 0.0875 0.6065 0.0000
vt 0.4290 0.6065 0.0000
vt 0.3314 0.6065 0.0000
vt 0.6730 0.6065 0.0000
vt 0.5754 0.6065 0.0000
vt 0.9170 0.6065 0.0000
vt 0.8194 0.6065 0.0000
vt 0.1850 0.7529 0.0000
vt 0.0875 0.7529 0.0000
vt 0.4290 0.7529 0.0000
vt 0.3314 0.7529 0.0000
vt 0.6730 0.7528 0.0000
vt 0.5754 0.7529 0.0000
vt 0.9170 0.7528 0.0000
vt 0.8194 0.7528 0.0000
# 66 texture coords

g Box001
usemtl Material__25
s 2
f 5/5/2 6/6/2 7/7/2 8/8/2 
s 4
f 9/9/3 10/10/3 11/11/3 12/12/3 
s 8
f 5/13/4 8/14/4 13/15/4 14/16/4 
s 16
f 8/14/5 7/17/5 15/18/5 13/15/5 
s 32
f 7/17/6 6/19/6 16/20/6 15/18/6 
s 64
f 6/19/7 5/21/7 14/22/7 16/20/7 
s off
f 14/16/3 13/15/3 17/23/3 18/24/3 
f 13/15/3 15/18/3 19/25/3 17/26/3 
f 15/18/3 16/20/3 20/27/3 19/28/3 
f 16/20/3 14/22/3 18/29/3 20/30/3 
f 18/24/4 17/23/4 21/31/4 22/32/4 
f 17/26/5 19/25/5 23/33/5 21/34/5 
f 19/28/6 20/27/6 24/35/6 23/36/6 
f 20/30/7 18/29/7 22/37/7 24/38/7 
f 22/32/3 21/31/3 25/39/3 26/40/3 
f 21/34/3 23/33/3 27/41/3 25/42/3 
f 23/36/3 24/35/3 28/43/3 27/44/3 
f 24/38/3 22/37/3 26/45/3 28/46/3 
f 26/40/4 25/39/4 29/47/4 30/48/4 
f 25/42/5 27/41/5 31/49/5 29/50/5 
f 27/44/6 28/43/6 32/51/6 31/52/6 
f 28/46/7 26/45/7 30/53/7 32/54/7 
f 30/48/3 29/47/3 33/55/3 34/56/3 
f 29/50/3 31/49/3 35/57/3 33/58/3 
f 31/52/3 32/51/3 36/59/3 35/60/3 
f 32/54/3 30/53/3 34/61/3 36/62/3 
f 34/56/4 33/55/4 10/63/4 9/64/4 
f 33/58/5 35/57/5 11/65/5 10/66/5 
f 35/60/6 36/59/6 12/67/6 11/68/6 
f 36/62/7 34/61/7 9/69/7 12/70/7 
# 30 polygons

