# 3ds Max Wavefront OBJ Exporter v0.97b - (c)2007 guruware
# File Created: 24.01.2014 23:52:40

mtllib Residential Block.mtl

#
# object Box007
#

v  -55.0000 0.0000 -5.0000
v  -55.0000 0.0000 -55.0000
v  -5.0000 0.0000 -55.0000
v  -5.0000 0.0000 -5.0000
v  -36.9724 78.2155 -15.0000
v  -23.0276 78.2155 -15.0000
v  -23.0276 78.2155 -45.0000
v  -36.9724 78.2155 -45.0000
v  -5.0000 69.3001 -5.0000
v  -55.0000 69.3001 -5.0000
v  -5.0000 69.3001 -55.0000
v  -55.0000 69.3001 -55.0000
v  -5.0000 75.0000 -5.0000
v  -55.0000 75.0000 -5.0000
v  -55.0000 71.2574 -5.0000
v  -5.0000 71.2574 -5.0000
v  -5.0000 75.0000 -55.0000
v  -5.0000 71.2574 -55.0000
v  -55.0000 75.0000 -55.0000
v  -55.0000 71.2574 -55.0000
v  -2.8787 71.2574 -2.8787
v  -57.1213 71.2574 -2.8787
v  -57.1213 69.3001 -2.8787
v  -2.8787 69.3001 -2.8787
v  -2.8787 71.2574 -57.1213
v  -2.8787 69.3001 -57.1213
v  -57.1213 71.2574 -57.1213
v  -57.1213 69.3001 -57.1213
# 28 vertices

vn 0.0000 -1.0000 -0.0000
vn 0.0000 1.0000 -0.0000
vn 0.0000 0.0000 1.0000
vn 1.0000 0.0000 -0.0000
vn 0.0000 0.0000 -1.0000
vn -1.0000 0.0000 -0.0000
vn 0.0000 0.9520 0.3061
vn 0.1756 0.9845 -0.0000
vn 0.0000 0.9520 -0.3061
vn -0.1756 0.9845 -0.0000
# 10 vertex normals

vt 1.0000 0.0000 0.0000
vt 1.0000 1.0000 0.0000
vt 0.0000 1.0000 0.0000
vt 0.0000 0.0000 0.0000
vt 1.0000 0.9240 0.0000
vt 0.0000 0.9240 0.0000
vt 0.0000 0.9501 0.0000
vt 1.0000 0.9501 0.0000
# 8 texture coords

g Box007
usemtl wire_057008136
s 2
f 1/1/1 2/2/1 3/3/1 4/4/1 
s 4
f 5/4/2 6/1/2 7/2/2 8/3/2 
s 8
f 4/1/3 9/5/3 10/6/3 1/4/3 
s 16
f 3/1/4 11/5/4 9/6/4 4/4/4 
s 32
f 2/1/5 12/5/5 11/6/5 3/4/5 
s 64
f 1/1/6 10/5/6 12/6/6 2/4/6 
s 8
f 13/2/3 14/3/3 15/7/3 16/8/3 
s 16
f 17/2/4 13/3/4 16/7/4 18/8/4 
s 32
f 19/2/5 17/3/5 18/7/5 20/8/5 
s 64
f 14/2/6 19/3/6 20/7/6 15/8/6 
s 8
f 21/8/3 22/7/3 23/6/3 24/5/3 
s 16
f 25/8/4 21/7/4 24/6/4 26/5/4 
s 32
f 27/8/5 25/7/5 26/6/5 28/5/5 
s 64
f 22/8/6 27/7/6 28/6/6 23/5/6 
s off
f 16/8/2 15/7/2 22/7/2 21/8/2 
f 15/8/2 20/7/2 27/7/2 22/8/2 
f 20/8/2 18/7/2 25/7/2 27/8/2 
f 18/8/2 16/7/2 21/7/2 25/8/2 
f 10/6/1 9/5/1 24/5/1 23/6/1 
f 9/6/1 11/5/1 26/5/1 24/6/1 
f 11/6/1 12/5/1 28/5/1 26/6/1 
f 12/6/1 10/5/1 23/5/1 28/6/1 
f 14/3/7 13/2/7 6/1/7 5/4/7 
f 13/3/8 17/2/8 7/2/8 6/1/8 
f 17/3/9 19/2/9 8/3/9 7/2/9 
f 19/3/10 14/2/10 5/4/10 8/3/10 
# 26 polygons

#
# object Box008
#

v  5.0000 0.0000 -5.0000
v  5.0000 0.0000 -55.0000
v  55.0000 0.0000 -55.0000
v  55.0000 0.0000 -5.0000
v  23.0276 78.2155 -15.0000
v  36.9724 78.2155 -15.0000
v  36.9724 78.2155 -45.0000
v  23.0276 78.2155 -45.0000
v  55.0000 69.3001 -5.0000
v  5.0000 69.3001 -5.0000
v  55.0000 69.3001 -55.0000
v  5.0000 69.3001 -55.0000
v  55.0000 75.0000 -5.0000
v  5.0000 75.0000 -5.0000
v  5.0000 71.2574 -5.0000
v  55.0000 71.2574 -5.0000
v  55.0000 75.0000 -55.0000
v  55.0000 71.2574 -55.0000
v  5.0000 75.0000 -55.0000
v  5.0000 71.2574 -55.0000
v  57.1213 71.2574 -2.8787
v  2.8787 71.2574 -2.8787
v  2.8787 69.3001 -2.8787
v  57.1213 69.3001 -2.8787
v  57.1213 71.2574 -57.1213
v  57.1213 69.3001 -57.1213
v  2.8787 71.2574 -57.1213
v  2.8787 69.3001 -57.1213
# 28 vertices

vn 0.0000 -1.0000 -0.0000
vn 0.0000 1.0000 -0.0000
vn 0.0000 0.0000 1.0000
vn 1.0000 0.0000 -0.0000
vn 0.0000 0.0000 -1.0000
vn -1.0000 0.0000 -0.0000
vn 0.0000 0.9520 0.3061
vn 0.1756 0.9845 -0.0000
vn 0.0000 0.9520 -0.3061
vn -0.1756 0.9845 -0.0000
# 10 vertex normals

vt 1.0000 0.0000 0.0000
vt 1.0000 1.0000 0.0000
vt 0.0000 1.0000 0.0000
vt 0.0000 0.0000 0.0000
vt 1.0000 0.9240 0.0000
vt 0.0000 0.9240 0.0000
vt 0.0000 0.9501 0.0000
vt 1.0000 0.9501 0.0000
# 8 texture coords

g Box008
usemtl wire_057008136
s 2
f 29/9/11 30/10/11 31/11/11 32/12/11 
s 4
f 33/12/12 34/9/12 35/10/12 36/11/12 
s 8
f 32/9/13 37/13/13 38/14/13 29/12/13 
s 16
f 31/9/14 39/13/14 37/14/14 32/12/14 
s 32
f 30/9/15 40/13/15 39/14/15 31/12/15 
s 64
f 29/9/16 38/13/16 40/14/16 30/12/16 
s 8
f 41/10/13 42/11/13 43/15/13 44/16/13 
s 16
f 45/10/14 41/11/14 44/15/14 46/16/14 
s 32
f 47/10/15 45/11/15 46/15/15 48/16/15 
s 64
f 42/10/16 47/11/16 48/15/16 43/16/16 
s 8
f 49/16/13 50/15/13 51/14/13 52/13/13 
s 16
f 53/16/14 49/15/14 52/14/14 54/13/14 
s 32
f 55/16/15 53/15/15 54/14/15 56/13/15 
s 64
f 50/16/16 55/15/16 56/14/16 51/13/16 
s off
f 44/16/12 43/15/12 50/15/12 49/16/12 
f 43/16/12 48/15/12 55/15/12 50/16/12 
f 48/16/12 46/15/12 53/15/12 55/16/12 
f 46/16/12 44/15/12 49/15/12 53/16/12 
f 38/14/11 37/13/11 52/13/11 51/14/11 
f 37/14/11 39/13/11 54/13/11 52/14/11 
f 39/14/11 40/13/11 56/13/11 54/14/11 
f 40/14/11 38/13/11 51/13/11 56/14/11 
f 42/11/17 41/10/17 34/9/17 33/12/17 
f 41/11/18 45/10/18 35/10/18 34/9/18 
f 45/11/19 47/10/19 36/11/19 35/10/19 
f 47/11/20 42/10/20 33/12/20 36/11/20 
# 26 polygons

#
# object Box009
#

v  -55.0000 0.0000 55.0000
v  -55.0000 0.0000 5.0000
v  -5.0000 0.0000 5.0000
v  -5.0000 0.0000 55.0000
v  -36.9724 78.2155 45.0000
v  -23.0276 78.2155 45.0000
v  -23.0276 78.2155 15.0000
v  -36.9724 78.2155 15.0000
v  -5.0000 69.3001 55.0000
v  -55.0000 69.3001 55.0000
v  -5.0000 69.3001 5.0000
v  -55.0000 69.3001 5.0000
v  -5.0000 75.0000 55.0000
v  -55.0000 75.0000 55.0000
v  -55.0000 71.2574 55.0000
v  -5.0000 71.2574 55.0000
v  -5.0000 75.0000 5.0000
v  -5.0000 71.2574 5.0000
v  -55.0000 75.0000 5.0000
v  -55.0000 71.2574 5.0000
v  -2.8787 71.2574 57.1213
v  -57.1213 71.2574 57.1213
v  -57.1213 69.3001 57.1213
v  -2.8787 69.3001 57.1213
v  -2.8787 71.2574 2.8787
v  -2.8787 69.3001 2.8787
v  -57.1213 71.2574 2.8787
v  -57.1213 69.3001 2.8787
# 28 vertices

vn 0.0000 -1.0000 -0.0000
vn 0.0000 1.0000 -0.0000
vn 0.0000 0.0000 1.0000
vn 1.0000 0.0000 -0.0000
vn 0.0000 0.0000 -1.0000
vn -1.0000 0.0000 -0.0000
vn 0.0000 0.9520 0.3061
vn 0.1756 0.9845 -0.0000
vn 0.0000 0.9520 -0.3061
vn -0.1756 0.9845 -0.0000
# 10 vertex normals

vt 1.0000 0.0000 0.0000
vt 1.0000 1.0000 0.0000
vt 0.0000 1.0000 0.0000
vt 0.0000 0.0000 0.0000
vt 1.0000 0.9240 0.0000
vt 0.0000 0.9240 0.0000
vt 0.0000 0.9501 0.0000
vt 1.0000 0.9501 0.0000
# 8 texture coords

g Box009
usemtl wire_057008136
s 2
f 57/17/21 58/18/21 59/19/21 60/20/21 
s 4
f 61/20/22 62/17/22 63/18/22 64/19/22 
s 8
f 60/17/23 65/21/23 66/22/23 57/20/23 
s 16
f 59/17/24 67/21/24 65/22/24 60/20/24 
s 32
f 58/17/25 68/21/25 67/22/25 59/20/25 
s 64
f 57/17/26 66/21/26 68/22/26 58/20/26 
s 8
f 69/18/23 70/19/23 71/23/23 72/24/23 
s 16
f 73/18/24 69/19/24 72/23/24 74/24/24 
s 32
f 75/18/25 73/19/25 74/23/25 76/24/25 
s 64
f 70/18/26 75/19/26 76/23/26 71/24/26 
s 8
f 77/24/23 78/23/23 79/22/23 80/21/23 
s 16
f 81/24/24 77/23/24 80/22/24 82/21/24 
s 32
f 83/24/25 81/23/25 82/22/25 84/21/25 
s 64
f 78/24/26 83/23/26 84/22/26 79/21/26 
s off
f 72/24/22 71/23/22 78/23/22 77/24/22 
f 71/24/22 76/23/22 83/23/22 78/24/22 
f 76/24/22 74/23/22 81/23/22 83/24/22 
f 74/24/22 72/23/22 77/23/22 81/24/22 
f 66/22/21 65/21/21 80/21/21 79/22/21 
f 65/22/21 67/21/21 82/21/21 80/22/21 
f 67/22/21 68/21/21 84/21/21 82/22/21 
f 68/22/21 66/21/21 79/21/21 84/22/21 
f 70/19/27 69/18/27 62/17/27 61/20/27 
f 69/19/28 73/18/28 63/18/28 62/17/28 
f 73/19/29 75/18/29 64/19/29 63/18/29 
f 75/19/30 70/18/30 61/20/30 64/19/30 
# 26 polygons

#
# object Box010
#

v  5.0000 0.0000 55.0000
v  5.0000 0.0000 5.0000
v  55.0000 0.0000 5.0000
v  55.0000 0.0000 55.0000
v  23.0276 78.2155 45.0000
v  36.9724 78.2155 45.0000
v  36.9724 78.2155 15.0000
v  23.0276 78.2155 15.0000
v  55.0000 69.3001 55.0000
v  5.0000 69.3001 55.0000
v  55.0000 69.3001 5.0000
v  5.0000 69.3001 5.0000
v  55.0000 75.0000 55.0000
v  5.0000 75.0000 55.0000
v  5.0000 71.2574 55.0000
v  55.0000 71.2574 55.0000
v  55.0000 75.0000 5.0000
v  55.0000 71.2574 5.0000
v  5.0000 75.0000 5.0000
v  5.0000 71.2574 5.0000
v  57.1213 71.2574 57.1213
v  2.8787 71.2574 57.1213
v  2.8787 69.3001 57.1213
v  57.1213 69.3001 57.1213
v  57.1213 71.2574 2.8787
v  57.1213 69.3001 2.8787
v  2.8787 71.2574 2.8787
v  2.8787 69.3001 2.8787
# 28 vertices

vn 0.0000 -1.0000 -0.0000
vn 0.0000 1.0000 -0.0000
vn 0.0000 0.0000 1.0000
vn 1.0000 0.0000 -0.0000
vn 0.0000 0.0000 -1.0000
vn -1.0000 0.0000 -0.0000
vn 0.0000 0.9520 0.3061
vn 0.1756 0.9845 -0.0000
vn 0.0000 0.9520 -0.3061
vn -0.1756 0.9845 -0.0000
# 10 vertex normals

vt 0.0733 0.9046 0.0000
vt 0.0729 0.8150 0.0000
vt 0.1626 0.8145 0.0000
vt 0.1630 0.9042 0.0000
vt 0.4570 0.3432 0.0000
vt 0.4570 0.4628 0.0000
vt 0.1996 0.4628 0.0000
vt 0.1997 0.3432 0.0000
vt 0.6576 0.2681 0.0000
vt 0.9803 0.2668 0.0000
vt 0.9813 0.4996 0.0000
vt 0.6586 0.5010 0.0000
vt 0.6566 0.0353 0.0000
vt 0.9793 0.0339 0.0000
vt 0.6596 0.7339 0.0000
vt 0.9823 0.7325 0.0000
vt 0.9833 0.9653 0.0000
vt 0.6606 0.9667 0.0000
vt 0.5470 0.6175 0.0000
vt 0.5471 0.1886 0.0000
vt 0.5792 0.1887 0.0000
vt 0.5791 0.6175 0.0000
vt 0.1139 0.6198 0.0000
vt 0.5427 0.6199 0.0000
vt 0.5427 0.6520 0.0000
vt 0.1138 0.6519 0.0000
vt 0.1096 0.1886 0.0000
vt 0.1095 0.6174 0.0000
vt 0.0774 0.6174 0.0000
vt 0.0775 0.1885 0.0000
vt 0.5428 0.1862 0.0000
vt 0.1139 0.1861 0.0000
vt 0.1139 0.1540 0.0000
vt 0.5428 0.1541 0.0000
vt 0.5973 0.6357 0.0000
vt 0.5974 0.1705 0.0000
vt 0.6142 0.1705 0.0000
vt 0.6141 0.6357 0.0000
vt 0.0957 0.6701 0.0000
vt 0.5609 0.6702 0.0000
vt 0.5609 0.6870 0.0000
vt 0.0957 0.6869 0.0000
vt 0.0593 0.1704 0.0000
vt 0.0592 0.6356 0.0000
vt 0.0424 0.6356 0.0000
vt 0.0425 0.1703 0.0000
vt 0.5610 0.1359 0.0000
vt 0.0957 0.1358 0.0000
vt 0.0957 0.1190 0.0000
vt 0.5610 0.1191 0.0000
vt 0.6324 0.1887 0.0000
vt 0.6323 0.6175 0.0000
vt 0.5427 0.7052 0.0000
vt 0.1138 0.7051 0.0000
vt 0.0242 0.6174 0.0000
vt 0.0243 0.1885 0.0000
vt 0.1139 0.1008 0.0000
vt 0.5428 0.1009 0.0000
# 58 texture coords

g Box010
usemtl wire_057008136
s 2
f 85/25/31 86/26/31 87/27/31 88/28/31 
s 4
f 89/29/32 90/30/32 91/31/32 92/32/32 
s 8
f 88/33/33 93/34/33 94/35/33 85/36/33 
s 16
f 87/37/34 95/38/34 93/34/34 88/33/34 
s 32
f 86/39/35 96/40/35 95/41/35 87/42/35 
s 64
f 85/36/36 94/35/36 96/40/36 86/39/36 
s 8
f 97/43/33 98/44/33 99/45/33 100/46/33 
s 16
f 101/47/34 97/48/34 100/49/34 102/50/34 
s 32
f 103/51/35 101/52/35 102/53/35 104/54/35 
s 64
f 98/55/36 103/56/36 104/57/36 99/58/36 
s 8
f 105/59/33 106/60/33 107/61/33 108/62/33 
s 16
f 109/63/34 105/64/34 108/65/34 110/66/34 
s 32
f 111/67/35 109/68/35 110/69/35 112/70/35 
s 64
f 106/71/36 111/72/36 112/73/36 107/74/36 
s off
f 100/46/32 99/45/32 106/60/32 105/59/32 
f 99/58/32 104/57/32 111/72/32 106/71/32 
f 104/54/32 102/53/32 109/68/32 111/67/32 
f 102/50/32 100/49/32 105/64/32 109/63/32 
f 94/75/31 93/76/31 108/62/31 107/61/31 
f 93/77/31 95/78/31 110/66/31 108/65/31 
f 95/79/31 96/80/31 112/70/31 110/69/31 
f 96/81/31 94/82/31 107/74/31 112/73/31 
f 98/44/37 97/43/37 90/30/37 89/29/37 
f 97/48/38 101/47/38 91/31/38 90/30/38 
f 101/52/39 103/51/39 92/32/39 91/31/39 
f 103/56/40 98/55/40 89/29/40 92/32/40 
# 26 polygons

